<?xml version="1.0" encoding="UTF-8" standalone="no"?>
<!-- Created with Inkscape (http://www.inkscape.org/) -->

<svg
   width="512"
   height="512"
   viewBox="0 0 512 512"
   version="1.1"
   id="svg1"
   xml:space="preserve"
   inkscape:version="1.4 (e7c3feb100, 2024-10-09)"
   sodipodi:docname="bevel_gear_icon.svg"
   xmlns:inkscape="http://www.inkscape.org/namespaces/inkscape"
   xmlns:sodipodi="http://sodipodi.sourceforge.net/DTD/sodipodi-0.dtd"
   xmlns="http://www.w3.org/2000/svg"
   xmlns:svg="http://www.w3.org/2000/svg"><sodipodi:namedview
     id="namedview1"
     pagecolor="#ffffff"
     bordercolor="#000000"
     borderopacity="0.25"
     inkscape:showpageshadow="2"
     inkscape:pageopacity="0.0"
     inkscape:pagecheckerboard="0"
     inkscape:deskcolor="#d1d1d1"
     inkscape:document-units="px"
     inkscape:zoom="0.78515625"
     inkscape:cx="273.19403"
     inkscape:cy="239.44279"
     inkscape:window-width="956"
     inkscape:window-height="1015"
     inkscape:window-x="0"
     inkscape:window-y="0"
     inkscape:window-maximized="0"
     inkscape:current-layer="layer1" /><defs
     id="defs1" /><g
     inkscape:label="Layer 1"
     inkscape:groupmode="layer"
     id="layer1"><path
       style="fill:#000000"
       d="m 278.14286,455.20537 c -3.20375,-0.38964 -6.10333,-1.27268 -9.24045,-2.81407 -3.18181,-1.56335 -5.92521,-3.51111 -6.88248,-4.88641 l -0.63859,-0.91744 v -51.44384 -51.44384 l -0.63858,-0.12948 c -0.35122,-0.0712 -3.57605,-0.2693 -7.16629,-0.44019 -3.59025,-0.17089 -7.3898,-0.38699 -8.44346,-0.48023 -2.20593,-0.19519 -2.22714,-0.23747 -1.36951,-2.73022 l 0.54623,-1.58766 -1.61053,-0.18547 c -2.84222,-0.32731 -16.03099,-2.10718 -17.64601,-2.38139 -1.42597,-0.24211 -2.03708,-0.13993 -7.06584,1.18152 l -5.50487,1.44654 -9.11154,-1.35593 c -5.01135,-0.74577 -9.23841,-1.47551 -9.39348,-1.62164 -0.30305,-0.2856 -0.11961,-0.66603 1.63806,-3.39709 l 1.02654,-1.59504 -5.87426,-1.50136 -5.87426,-1.50137 -6.95343,0.0497 -6.95344,0.0497 -8.93822,-1.3627 c -7.44682,-1.13532 -8.95345,-1.44175 -9.02946,-1.83646 -0.0548,-0.28451 0.94102,-1.57027 2.49279,-3.21861 1.42122,-1.50966 2.54701,-2.77664 2.50175,-2.81552 -0.0453,-0.0389 -1.16788,-0.55321 -2.49471,-1.14297 -2.75503,-1.22457 -1.96186,-1.14565 -12.21521,-1.21549 l -7.8161,-0.0532 -3.11073,-2.57577 c -5.69641,-4.71679 -6.10993,-5.10381 -5.88125,-5.50436 0.11891,-0.20828 1.45495,-1.39524 2.96898,-2.6377 l 2.75278,-2.259 -0.76608,-0.72687 c -0.57686,-0.54732 -0.96162,-0.68854 -1.55768,-0.57172 -0.43538,0.0853 -4.26686,-0.12854 -8.51441,-0.47528 l -7.72282,-0.63043 -1.36795,-1.46243 c -2.8385,-3.03453 -4.74338,-5.333 -4.60515,-5.55668 0.0787,-0.12739 2.06047,-1.54763 4.40384,-3.15608 2.34338,-1.60845 4.21584,-2.96931 4.16101,-3.02413 -0.0548,-0.0548 -2.51228,-0.41502 -5.46101,-0.80045 -7.20033,-0.94113 -7.20613,-0.94229 -7.20613,-1.44227 0,-0.23616 1.07996,-2.56119 2.3999,-5.16674 l 2.3999,-4.73736 2.38844,-1.34601 c 2.79856,-1.57715 2.94646,-1.72712 3.18704,-3.23162 l 0.18289,-1.14371 -3.36334,-1.49075 c -3.56918,-1.58198 -4.17398,-1.96875 -3.84975,-2.46195 0.11142,-0.1695 1.8629,-1.17966 3.89217,-2.24478 2.02927,-1.06513 3.72987,-1.96718 3.77912,-2.00456 0.0492,-0.0374 -0.3134,-0.86616 -0.80587,-1.84174 l -0.8954,-1.77378 1.21047,-7.19982 1.21048,-7.19981 -1.66614,-3.47198 c -0.91637,-1.90958 -1.70115,-3.52123 -1.74394,-3.58144 -0.0428,-0.0602 -1.30422,0.41873 -2.80318,1.0643 -1.49896,0.64557 -2.89798,1.17377 -3.10893,1.17377 -0.24592,0 -0.95402,-1.75674 -1.97338,-4.89579 -0.8744,-2.69268 -1.76868,-5.27893 -1.98729,-5.74722 -1.15355,-2.47112 -1.13274,-2.9741 0.39857,-9.63351 0.78763,-3.42526 1.42817,-6.61816 1.42343,-7.09534 -0.005,-0.47718 -0.68468,-4.8636 -1.51096,-9.74759 -1.08247,-6.39822 -1.63487,-9.01251 -1.97653,-9.35418 -0.423669,-0.42366 -0.618008,-0.43313 -1.823852,-0.0889 -0.742311,0.21193 -1.745306,0.44188 -2.228878,0.51101 l -0.879222,0.12568 -0.172554,-1.94176 c -0.0949,-1.06796 -0.324473,-4.36836 -0.510152,-7.33421 -0.211681,-3.38118 -0.483714,-5.68357 -0.729349,-6.17295 l -0.39175,-0.78049 -37.523004,0 -37.523004,0 -1.484197,-0.75093 c -1.018152,-0.51514 -1.858174,-1.25037 -2.675184,-2.34147 -1.195256,-1.59623 -2.518389,-4.22488 -2.518389,-5.00325 0,-0.22908 -0.250407,-1.15138 -0.55646,-2.04956 -1.206522,-3.54082 -1.8545304,-16.11648 -1.14443,-22.20956 0.911635,-7.82236 1.155693,-9.20334 2.009254,-11.36919 0.849206,-2.15481 3.151828,-4.77499 5.005362,-5.69567 l 1.355897,-0.6735 38.882481,-0.1419 38.882481,-0.14191 0.220045,-2.41242 c 0.121025,-1.32683 0.373383,-3.30643 0.560797,-4.39911 0.187414,-1.09268 0.343826,-2.49756 0.347583,-3.12195 0.0064,-1.06584 0.06188,-1.14059 0.907156,-1.22254 0.706946,-0.0685 0.963452,-0.26838 1.194232,-0.9304 0.161649,-0.4637 0.221239,-1.03247 0.132423,-1.26392 -0.190445,-0.49629 0.130773,-2.37959 1.630214,-9.55791 0.61025,-2.92149 1.10955,-5.746539 1.10955,-6.277885 0,-0.531345 0.26452,-1.780946 0.58783,-2.776891 0.69783,-2.149661 0.61759,-3.136788 -0.54232,-6.671588 -1.14988,-3.504204 -1.36059,-5.728197 -0.67437,-7.117826 0.29246,-0.592255 1.62174,-3.248003 2.95394,-5.901661 1.33221,-2.653659 2.50061,-5.051234 2.59644,-5.327945 0.30249,-0.873391 1.01035,-0.871028 3.00509,0.01003 l 1.93771,0.855869 0.60865,-1.082944 c 0.33476,-0.595619 1.27931,-2.018266 2.09901,-3.161437 l 1.49037,-2.078495 -1.05849,-7.095343 c -0.58217,-3.902439 -1.06298,-7.350776 -1.06847,-7.662972 -0.007,-0.413123 1.04596,-1.301519 3.8694,-3.263858 2.13366,-1.482926 4.09725,-2.804918 4.36354,-2.937759 0.36008,-0.179625 1.29263,0.27367 3.63853,1.768606 l 3.15436,2.010134 1.13896,-2.26528 c 0.62969,-1.252374 1.32139,-2.265279 1.54694,-2.265279 0.22439,0 16.53871,10.991346 36.25404,24.425214 30.54227,20.811255 36.13488,24.726286 37.79808,26.460027 2.88528,3.007665 2.82348,2.859353 2.15925,5.182059 -0.30998,1.083943 -0.55898,2.162785 -0.55332,2.397425 0.006,0.23465 1.34171,1.32064 2.96903,2.41332 1.62732,1.09269 3.03934,2.17827 3.13783,2.41242 0.6101,1.4504 2.39727,6.64038 2.39727,6.96171 0,0.21274 -0.81144,1.78292 -1.8032,3.48929 l -1.8032,3.10248 0.78864,3.93723 c 0.43374,2.16548 0.93743,4.86317 1.1193,5.99488 l 0.33068,2.05765 h 1.64866 1.64866 l 0.19326,3.47672 c 0.10629,1.91219 0.21494,4.94401 0.24144,6.73737 l 0.0482,3.26066 -1.20621,0.42017 -1.20621,0.42017 9.9e-4,8.09744 10e-4,8.09745 1.58253,0.85144 c 0.87039,0.46829 1.68816,0.97915 1.81727,1.13525 0.1291,0.1561 -0.13417,3.349 -0.58506,7.09535 -0.45088,3.74634 -0.8221,6.94279 -0.82491,7.10322 -0.003,0.16043 -0.95213,1.33311 -2.10959,2.60594 -1.86891,2.0552 -2.14107,2.49907 -2.43146,3.96551 -0.17984,0.9082 -0.6387,2.97466 -1.01967,4.59214 l -0.69267,2.94088 1.42125,2.62862 c 0.78169,1.44574 1.42125,2.84751 1.42125,3.11504 0,0.26753 -1.2761,2.53721 -2.83579,5.04373 -2.56441,4.12117 -3.128,4.82915 -5.88914,7.39788 -3.48487,3.24203 -4.43296,4.91639 -1.44702,2.5555 0.9897,-0.78253 1.99102,-1.48761 2.22517,-1.56685 0.23414,-0.0792 1.24149,0.14821 2.23854,0.50544 l 1.81282,0.64951 3.72155,-2.48475 c 2.99867,-2.0021 4.48756,-2.77793 7.66515,-3.99416 l 3.94361,-1.50942 3.64411,1.80484 3.6441,1.80483 3.36542,-3.32396 c 1.85098,-1.82818 3.41744,-3.32495 3.48102,-3.32615 0.0636,-0.001 2.73379,-0.5052 5.93379,-1.12 l 5.81818,-1.11781 3.40576,1.85576 3.40577,1.85576 3.68958,-0.46706 c 2.02926,-0.25688 3.72152,-0.55605 3.76057,-0.66481 0.039,-0.10876 0.6893,-1.16277 1.44501,-2.34224 l 1.37402,-2.1445 5.0827,-0.35723 c 2.79549,-0.19648 5.78727,-0.42791 6.64841,-0.51429 l 1.56571,-0.15706 2.14516,1.94925 2.14516,1.94925 5.9388,-0.28381 5.9388,-0.28382 0.072,-0.99334 c 0.0396,-0.54635 0.1432,-1.53615 0.23025,-2.19956 l 0.15826,-1.20621 7.34502,0 c 4.03976,0 7.41403,0.11166 7.49837,0.24814 0.0844,0.13648 0.23633,1.14083 0.33773,2.23188 l 0.18437,1.98374 6.13579,0.19576 c 3.37468,0.10766 6.35056,0.2586 6.61307,0.33541 0.34257,0.10024 0.8137,-0.36469 1.66911,-1.64714 0.6555,-0.98275 1.35836,-1.92254 1.56191,-2.08842 0.26451,-0.21557 2.33872,-0.0782 7.27102,0.48171 3.79551,0.43083 7.11711,0.79005 7.38133,0.79828 0.26422,0.008 1.32912,1.01351 2.36645,2.23395 l 1.88606,2.21898 3.67811,0.50178 3.67811,0.50177 1.7801,-1.15978 c 0.97906,-0.63788 2.02663,-1.16049 2.32794,-1.16134 0.30132,-8.6e-4 3.74075,0.58257 7.64319,1.29651 l 7.09534,1.29808 2.2059,2.31818 c 1.56407,1.64369 2.51372,2.40641 3.26386,2.6214 1.01011,0.28949 1.14824,0.24084 3.0543,-1.07589 l 1.99635,-1.3791 7.32842,2.35698 7.32842,2.35697 3.87257,3.12301 3.87257,3.12302 1.31612,-0.25551 1.31612,-0.25552 3.79253,3.26011 c 2.08589,1.79306 4.81727,4.1426 6.06973,5.22119 1.84325,1.58736 9.19339,6.04456 38.56967,23.38902 l 36.29246,21.42794 3.57667,3.9106 c 1.96717,2.15083 3.61713,4.02827 3.66656,4.1721 0.0494,0.14382 -0.93748,0.93838 -2.19316,1.76568 -1.25568,0.82729 -2.28185,1.56803 -2.28037,1.64608 0.001,0.078 1.54237,1.08653 3.42421,2.24108 1.88185,1.15454 3.49093,2.28001 3.57575,2.50105 0.20961,0.54623 -0.50225,7.52568 -0.80717,7.9139 -0.15112,0.19241 -2.24961,0.37685 -5.52821,0.48589 -4.6165,0.15354 -5.33322,0.23992 -5.66896,0.68322 -0.21138,0.2791 -0.34852,0.62785 -0.30476,0.775 0.0438,0.14715 1.92326,1.59432 4.17665,3.21593 2.25339,1.62161 4.13246,3.16152 4.17572,3.42203 0.12292,0.74028 -4.98309,6.86076 -5.71739,6.85333 -0.33284,-0.003 -3.67035,-0.49956 -7.41669,-1.10264 l -6.81153,-1.09652 -2.82917,1.80919 c -1.55604,0.99505 -2.96092,1.86414 -3.12195,1.93132 -0.3009,0.12551 0.43029,0.87303 4.81417,4.92167 2.1765,2.01006 2.47666,2.3949 2.12003,2.71813 -0.2285,0.2071 -2.61524,1.37302 -5.30387,2.59092 l -4.88841,2.21438 -8.01684,-1.56043 -8.01683,-1.56042 -3.83976,1.43143 c -2.11187,0.78728 -3.88616,1.46612 -3.94285,1.50853 -0.0567,0.0424 0.84608,1.20145 2.00617,2.57564 3.08655,3.65619 3.54445,4.33 3.12055,4.59198 -0.19536,0.12074 -3.75115,0.95987 -7.90175,1.86474 l -7.54656,1.64521 -6.95754,-1.7898 -6.95754,-1.78981 -2.16272,0.46893 c -8.34431,1.80924 -11.17682,2.45341 -11.29126,2.56784 -0.0721,0.0721 0.771,1.59565 1.87348,3.38574 1.10248,1.79009 2.00451,3.39738 2.00451,3.57175 0,0.45071 -0.3441,0.50258 -9.7103,1.46376 l -8.43314,0.86543 -5.85103,-2.46983 -5.85103,-2.46984 -6.29233,0.76586 c -3.46077,0.42121 -7.76106,0.91087 -9.55618,1.08811 -1.79512,0.17725 -3.35734,0.40203 -3.47159,0.49952 -0.11425,0.0975 0.13016,1.20795 0.54315,2.46768 0.41298,1.25974 0.67011,2.50089 0.5714,2.75812 -0.16157,0.42105 -1.09332,0.46761 -9.34137,0.46679 l -9.1619,-9e-4 -1.70288,-1.13215 -1.70288,-1.13215 -0.0717,52.05303 -0.0717,52.05303 -0.86368,0.72673 c -2.51273,2.11433 -12.14475,3.49668 -22.37617,3.21134 -5.89829,-0.16449 -8.17318,-0.53102 -12.94898,-2.08633 l -2.3187,-0.75511 -5.22441,2.28289 c -2.87343,1.25559 -6.43772,2.68985 -7.92065,3.18726 -5.2975,1.77688 -10.75425,2.49393 -15.02562,1.97443 z m 8.77938,-1.58592 c 1.16944,-0.23634 2.2231,-0.48955 2.34146,-0.5627 0.11836,-0.0731 0.2152,-2.79734 0.2152,-6.05375 v -5.92075 l -1.90921,-0.20446 c -2.7244,-0.29176 -7.75542,0.0367 -11.18365,0.73003 -5.83152,1.17946 -13.88603,4.33532 -13.37866,5.24193 0.35965,0.64267 3.34162,2.85957 5.26607,3.91499 5.93921,3.25724 12.03761,4.19076 18.64879,2.85471 z m 7.80722,-2.22934 c 2.99892,-1.07966 10.103,-4.17613 9.94456,-4.33457 -0.0601,-0.0602 -1.87402,-0.93317 -4.03082,-1.94004 -4.08245,-1.90583 -7.05066,-3.06508 -8.92813,-3.48692 l -1.10091,-0.24736 v 5.65151 5.65152 l 0.78049,-0.18727 c 0.42926,-0.103 1.92993,-0.60109 3.33481,-1.10687 z m 40.12524,-2.53699 c 3.40166,-0.49427 7.12086,-1.53352 8.19405,-2.28967 l 0.63858,-0.44992 v -52.173 -52.17299 l -0.66348,-0.43473 c -0.57287,-0.37536 -1.45456,-0.40187 -6.45676,-0.19412 -3.18631,0.13233 -8.82655,0.33008 -12.53386,0.43944 l -6.74058,0.19885 v 53.72736 53.72736 l 0.92239,0.13323 c 2.04459,0.29532 13.51239,-0.0574 16.63966,-0.51181 z m -18.69731,-53.36816 c 0,-53.29391 -0.002,-53.49907 -0.56762,-53.54619 -1.67409,-0.13951 -1.56098,-0.38974 -1.56098,3.45306 v 3.54768 h -9.50776 -9.50776 l 0.10538,-3.59028 0.10537,-3.59028 -2.37588,-0.16041 c -1.30674,-0.0882 -4.61092,-0.22867 -7.34263,-0.31212 -2.73171,-0.0835 -7.75417,-0.30175 -11.16103,-0.48512 l -6.19428,-0.33339 -2.81678,0.97194 -2.81677,0.97194 -2e-5,51.29933 c -2e-5,28.21464 0.0689,51.29934 0.15318,51.29934 0.0843,0 0.67798,-0.26772 1.31937,-0.59493 5.58985,-2.85172 14.04624,-4.78143 21.0011,-4.79233 5.2963,-0.008 8.04011,0.75191 16.12499,4.46771 6.60997,3.03792 11.75217,4.7767 14.40354,4.87038 l 0.63858,0.0226 z m -3.25131,-49.88027 c -0.0874,-1.2878 -0.60983,-17.85898 -1.16087,-36.82483 -0.55105,-18.96585 -1.07008,-35.15388 -1.15342,-35.97339 l -0.15151,-1.49002 h -5.20755 -5.20754 l -0.16364,1.77383 c -0.09,0.97561 -0.92612,17.35521 -1.85802,36.39912 -0.93191,19.0439 -1.76334,35.48736 -1.84763,36.54102 l -0.15324,1.91574 h 8.5312 8.53119 z m 52.6349,-2.30249 c 0,-0.39273 -23.24896,-72.59971 -23.44299,-72.80961 -0.13326,-0.14416 -9.42202,0.67188 -9.5929,0.84276 -0.0693,0.0693 0.62339,3.38213 1.53938,7.36178 0.91599,3.97965 4.61277,20.0712 8.21507,35.75901 3.6023,15.6878 6.60651,28.68292 6.67603,28.87804 0.19413,0.54485 16.60541,0.51324 16.60541,-0.032 z m -96.20659,-37.30798 c 4.49749,-19.77521 8.09206,-36.03941 7.98793,-36.14267 -0.10412,-0.10325 -2.29342,-0.23096 -4.86511,-0.28381 l -4.67579,-0.0961 -11.60983,35.8415 c -6.3854,19.71283 -11.52555,35.92578 -11.42255,36.02878 0.28689,0.28689 16.19251,1.10694 16.30734,0.84077 0.0554,-0.12845 3.78052,-16.41327 8.27801,-36.18849 z m 26.04276,33.15371 c 0.044,-0.70244 0.84112,-16.53924 1.77129,-35.1929 0.93018,-18.65366 1.76934,-34.57335 1.8648,-35.3771 l 0.17357,-1.46135 -2.6544,-0.15969 c -7.15873,-0.43069 -13.17225,-0.65571 -13.32034,-0.49843 -0.20213,0.21466 -13.97495,72.69362 -13.83907,72.82756 0.22324,0.22005 22.31243,1.25836 24.93074,1.17188 0.97064,-0.0321 0.99518,-0.062 1.07341,-1.30997 z m 40.75865,0.84331 c 2.793,-0.14413 5.13792,-0.32179 5.21093,-0.3948 0.10001,-0.10002 -12.53528,-64.10825 -14.17075,-71.78657 l -0.29351,-1.37798 -1.74391,0.16226 c -0.95915,0.0892 -4.40448,0.24636 -7.65627,0.34915 l -5.91236,0.18688 0.16981,4.86032 c 0.0934,2.67317 0.5477,17.50422 1.00958,32.95788 0.46188,15.45365 0.9209,29.80913 1.02005,31.90105 l 0.18027,3.80349 8.55399,-0.19981 c 4.70469,-0.10989 10.83917,-0.31773 13.63217,-0.46187 z m 70.10763,-0.42658 c 3.73269,-0.38401 6.84174,-0.75323 6.909,-0.82049 0.10919,-0.10919 -42.25819,-69.74197 -42.82694,-70.38809 -0.21412,-0.24324 -4.77673,0.22914 -6.41265,0.66392 -0.60065,0.15963 0.22918,1.978 15.42513,33.8002 8.83296,18.49733 16.4881,34.55993 17.01142,35.69468 l 0.95148,2.06319 1.07793,-0.15761 c 0.59286,-0.0867 4.13194,-0.47179 7.86463,-0.8558 z m -28.09563,-3.1184 c 3.10936,-0.38808 5.69721,-0.74944 5.75078,-0.803 0.0536,-0.0536 -6.36688,-16.28048 -14.26765,-36.0598 l -14.36506,-35.96239 -0.75158,0.15654 c -0.41336,0.0861 -3.3591,0.47652 -6.54606,0.8676 -3.18697,0.39109 -5.83431,0.75088 -5.88298,0.79955 -0.2334,0.2334 2.10376,7.69502 12.09951,38.62904 5.94782,18.4068 10.86596,33.55063 10.92921,33.65297 0.12947,0.2095 4.66942,-0.23653 13.03383,-1.28051 z m -162.36751,-6.73514 c 7.67624,-14.98549 32.58216,-64.41242 32.49424,-64.4863 -0.15287,-0.12846 -8.20679,-0.78786 -8.30028,-0.67956 -0.81523,0.94427 -44.43144,69.87923 -44.29854,70.01338 0.15734,0.15883 14.31492,2.45819 15.8085,2.56749 0.35306,0.0258 1.48791,-1.93291 4.29608,-7.41501 z m 39.95645,-26.74944 c 6.06418,-18.73171 11.16484,-34.76009 11.33479,-35.61863 0.16994,-0.85853 0.36685,-1.76614 0.43755,-2.01691 0.10952,-0.38842 -0.56903,-0.54986 -4.58202,-1.09014 -2.59083,-0.34882 -4.74687,-0.59065 -4.79121,-0.53741 -0.0443,0.0532 -7.39601,15.42273 -16.33705,34.15444 -8.94104,18.73171 -16.5183,34.59764 -16.83837,35.25763 -0.32006,0.65999 -0.52313,1.25878 -0.45127,1.33064 0.25881,0.25881 18.41091,2.6973 19.52591,2.62304 0.64111,-0.0427 1.24322,-1.79744 11.70167,-34.10266 z m 190.39186,27.16433 c 3.34758,-0.73551 6.06743,-1.438 6.04411,-1.5611 -0.0372,-0.19625 -55.04657,-65.97859 -56.23531,-67.24834 -0.43609,-0.46581 -0.63882,-0.44484 -3.7922,0.39212 -1.83232,0.48632 -3.32882,0.96321 -3.32556,1.05974 0.004,0.13128 31.37809,43.47594 48.46126,66.95226 1.25188,1.72037 1.59926,2.03032 2.12861,1.89924 0.34792,-0.0862 3.37151,-0.75842 6.71909,-1.49392 z m -28.72066,-0.38749 c 3.00488,-0.65526 5.46342,-1.29147 5.46342,-1.4138 0,-0.12234 -10.28441,-15.69533 -22.85423,-34.60665 -20.70472,-31.15029 -22.91361,-34.36844 -23.48559,-34.21635 -0.34724,0.0923 -2.48324,0.57566 -4.74665,1.07406 -2.26342,0.4984 -4.16108,0.94033 -4.21704,0.98207 -0.056,0.0417 0.85261,1.58399 2.01904,3.42722 1.16643,1.84323 10.57837,17.20854 20.91542,34.14512 10.33706,16.93659 18.98713,31.09475 19.22238,31.46259 0.49766,0.77814 -0.11514,0.84628 7.68325,-0.85426 z M 218.48945,296.11549 c 11.54554,-18.12638 21.31469,-33.59407 21.70923,-34.37265 l 0.71734,-1.4156 -3.45153,-0.89315 c -3.28373,-0.84972 -3.47405,-0.8689 -3.91483,-0.39453 -0.25482,0.27424 -11.29535,15.24984 -24.53451,33.2791 -13.23915,18.02927 -24.19652,32.94322 -24.3497,33.14212 -0.15318,0.19889 -0.1956,0.44453 -0.0943,0.54587 0.30793,0.30792 11.62987,3.18103 12.30065,3.12146 0.50187,-0.0446 4.78104,-6.57935 21.61762,-33.01262 z m -20.91594,-3.5158 c 14.47293,-18.49603 26.32118,-33.76762 26.32943,-33.93687 0.008,-0.16924 -1.48567,-0.6291 -3.31982,-1.0219 l -3.33481,-0.71418 -1.05559,1.0219 c -2.20371,2.1334 -61.45966,65.73717 -61.35074,65.85227 0.15226,0.16087 15.45874,2.52447 15.99708,2.47024 0.23101,-0.0233 12.26151,-15.17543 26.73445,-33.67146 z m 253.95297,27.3831 c 1.9216,-0.70669 3.65836,-1.3772 3.85948,-1.49003 0.24913,-0.13976 -8.68341,-10.20059 -28.02644,-31.56656 -15.61566,-17.24878 -28.93576,-31.96323 -29.60021,-32.69877 l -1.20809,-1.33736 -1.88317,0.79449 c -1.03575,0.43697 -1.93628,0.8476 -2.00119,0.91251 -0.35489,0.35489 5.88439,8.01125 29.22426,35.86172 14.19767,16.94148 25.88765,30.80408 25.97775,30.80578 0.0901,0.002 1.73602,-0.5751 3.65761,-1.28178 z m 25.63953,-0.88835 4.20153,-1.89862 -0.65386,-0.6254 c -0.48435,-0.46327 -64.90863,-59.07403 -68.51802,-62.33509 -0.59473,-0.53734 -0.61654,-0.53286 -2.34851,0.48222 l -1.74819,1.02459 7.31524,7.47196 c 19.1205,19.53011 57.01372,57.75356 57.26647,57.76552 0.15609,0.007 2.1745,-0.84094 4.48534,-1.88518 z m -289.4652,-32.45133 c 15.73649,-16.85814 29.24946,-31.20055 30.02884,-31.87202 l 1.41704,-1.22085 -2.87944,-1.244 -2.87944,-1.24401 -0.94016,0.97412 c -1.94916,2.01955 -57.93952,62.02914 -58.31318,62.49916 -0.35573,0.44746 -0.17647,0.59266 1.9867,1.60924 1.30773,0.61457 2.51048,1.12463 2.67278,1.13346 0.16229,0.009 13.17038,-13.77696 28.90686,-30.6351 z m -17.80014,-4.42087 c 18.70462,-17.56888 34.04543,-32.04657 34.09071,-32.17265 0.0453,-0.12608 -0.5581,-0.64018 -1.34081,-1.14245 l -1.42313,-0.91322 -5.51394,4.49497 c -38.05102,31.01919 -67.67498,55.34271 -67.62857,55.52821 0.0937,0.37445 7.40719,6.38892 7.61619,6.26337 0.10513,-0.0632 15.49493,-14.48936 34.19955,-32.05823 z m 307.81334,25.23843 c 1.36825,-0.86333 2.48772,-1.67478 2.48772,-1.80321 0,-0.48104 -69.87209,-60.49192 -70.25921,-60.34337 -0.57045,0.2189 -3.24855,2.25108 -3.24855,2.46504 0,0.10004 1.37295,1.34201 3.051,2.75994 1.67805,1.41794 16.90821,15.2209 33.84479,30.67325 19.65171,17.92954 30.94625,28.04505 31.21516,27.95662 0.23175,-0.0762 1.54084,-0.84493 2.90909,-1.70827 z m 20.6307,-2.96968 c 2.00355,-2.50225 2.0535,-2.60205 1.54252,-3.08196 -0.29044,-0.27278 -17.82025,-12.91186 -38.95512,-28.08686 -28.43072,-20.41345 -38.48896,-27.49315 -38.66501,-27.21516 -0.13088,0.20665 -0.2081,0.45483 -0.17162,0.55149 0.084,0.22254 73.8015,60.37864 74.01827,60.40154 0.0882,0.009 1.09212,-1.14676 2.23096,-2.56905 z M 166.93155,274.51382 c 18.46446,-15.09998 34.31742,-27.95357 35.2288,-28.56354 l 1.65705,-1.10903 -0.80561,-0.66003 c -0.44308,-0.36302 -0.95235,-0.60929 -1.1317,-0.54728 -0.31319,0.10829 -69.04537,55.68857 -69.91781,56.53904 -0.37708,0.36759 -0.32844,0.49369 0.42572,1.10377 0.4683,0.37882 0.87853,0.6894 0.91163,0.69017 0.0331,7.8e-4 15.16746,-12.35312 33.63192,-27.4531 z m -13.82514,-4.84831 c 21.22926,-15.9956 38.65275,-29.1292 38.71885,-29.18577 0.19328,-0.16541 -0.66381,-2.70016 -0.92986,-2.74994 -0.28153,-0.0527 -81.6057,55.78038 -81.62517,56.03971 -0.0325,0.43283 4.63304,5.33042 4.9193,5.16396 0.17501,-0.10177 17.68761,-13.27235 38.91688,-29.26796 z m 339.42128,24.16374 c 0.10049,-0.26186 0.0184,-0.62891 -0.18249,-0.81566 -0.59088,-0.5494 -76.90258,-54.10143 -76.95188,-54.00129 -0.0247,0.0502 -0.33733,0.50857 -0.69468,1.01857 l -0.64974,0.92729 1.21833,0.50732 c 0.67007,0.27903 2.53945,1.0112 4.15417,1.62704 2.88592,1.10067 3.52787,1.54541 37.74723,26.15116 19.14625,13.76729 34.89349,25.03824 34.99387,25.04656 0.10037,0.008 0.26471,-0.19913 0.36519,-0.46099 z m 11.65797,-3.56824 c 0.0981,-0.66341 0.2017,-2.01379 0.23025,-3.00085 l 0.0519,-1.79464 -14.04877,-8.68387 c -50.57778,-31.26326 -64.00451,-39.4874 -64.16791,-39.30411 -0.10149,0.11384 -0.26003,0.52919 -0.35231,0.92301 -0.15912,0.67911 1.84098,2.06578 38.77489,26.88269 21.41846,14.39166 39.03063,26.17055 39.13813,26.17532 0.10751,0.005 0.27573,-0.53413 0.37383,-1.19755 z M 148.8492,256.70237 c 22.94634,-14.1785 41.92286,-25.95061 42.17005,-26.16024 0.38321,-0.32498 1.21394,-2.36707 1.03137,-2.5353 -0.034,-0.0313 -16.28169,9.38355 -36.10608,20.92187 -19.82439,11.53832 -38.42215,22.34301 -41.32837,24.01042 l -5.28403,3.03165 -1.74036,3.49391 c -0.9572,1.92165 -1.74036,3.57115 -1.74036,3.66557 0,0.0944 0.28736,-0.0129 0.63858,-0.23856 0.35122,-0.22563 19.41286,-12.01082 42.3592,-26.18932 z m 349.27464,16.38791 c -1.80839,-2.50063 -3.39608,-3.50176 -37.90376,-23.90068 -19.02893,-11.2488 -34.6456,-20.40481 -34.70371,-20.3467 -0.0891,0.0891 72.81849,45.00349 73.08163,45.02164 0.0496,0.003 -0.16372,-0.34499 -0.47416,-0.77426 z m -187.5842,-4.96674 0.0834,-2.05765 7.80487,-0.31963 c 9.30687,-0.38114 11.66845,-0.46332 12.10884,-0.42138 0.18181,0.0173 0.55574,0.98663 0.83095,2.15404 0.27522,1.16741 0.57347,2.23097 0.66279,2.36347 0.13614,0.20197 9.3738,-0.4055 9.59957,-0.63127 0.0414,-0.0413 -0.13121,-0.98913 -0.38347,-2.10617 -0.25227,-1.11705 -0.39223,-2.20412 -0.31104,-2.4157 0.0995,-0.25934 1.15004,-0.49545 3.22354,-0.72451 1.69176,-0.1869 5.31002,-0.65268 8.04059,-1.03507 2.73056,-0.3824 5.22103,-0.69076 5.53436,-0.68527 0.3876,0.007 1.24331,0.92309 2.67698,2.86648 2.08872,2.83131 2.11622,2.85513 3.12195,2.7032 0.55807,-0.0843 2.06833,-0.30332 3.35614,-0.48671 1.2878,-0.18339 2.34146,-0.43895 2.34146,-0.56791 0,-0.12897 -0.78531,-1.46183 -1.74513,-2.96191 -1.00155,-1.5653 -1.63643,-2.82854 -1.49002,-2.96472 0.14031,-0.13051 1.87933,-0.57939 3.86449,-0.9975 1.98516,-0.41812 5.73806,-1.31592 8.33979,-1.99512 2.60173,-0.6792 4.88847,-1.17426 5.08165,-1.10013 0.19318,0.0741 1.27582,1.21181 2.40588,2.52819 1.66137,1.93531 2.17079,2.36407 2.66152,2.24014 0.33378,-0.0843 1.91365,-0.50235 3.51082,-0.92899 l 2.90395,-0.7757 -1.83082,-2.54519 c -1.00695,-1.39985 -1.83479,-2.73741 -1.83964,-2.97235 -0.005,-0.26597 0.66056,-0.68242 1.76501,-1.10356 0.97561,-0.37202 3.10176,-1.29731 4.72478,-2.0562 1.62303,-0.7589 3.05113,-1.37982 3.17356,-1.37982 0.12243,0 1.56718,1.14945 3.21055,2.55433 1.64338,1.40487 3.05012,2.55432 3.1261,2.55432 0.076,0 0.91019,-0.45248 1.8538,-1.00552 l 1.71565,-1.00552 -2.8357,-2.41782 c -1.55964,-1.3298 -2.83571,-2.57533 -2.83571,-2.76784 0,-0.28928 1.45059,-1.42791 4.79546,-3.76418 0.3518,-0.24572 1.66733,-0.0236 5.79599,0.97873 4.43713,1.07718 5.38247,1.22932 5.5866,0.89904 0.13513,-0.21865 0.19418,-0.4809 0.13122,-0.58278 -0.063,-0.10188 -2.03414,-0.92744 -4.38039,-1.83457 -2.34625,-0.90714 -4.26591,-1.80513 -4.26591,-1.99554 0,-0.19041 0.52144,-1.12704 1.15874,-2.08142 0.84043,-1.25854 1.33246,-1.73522 1.79112,-1.73522 0.34781,0 2.46993,0.2556 4.71583,0.56801 2.2459,0.3124 4.1693,0.47204 4.27423,0.35476 0.10493,-0.11728 0.27139,-0.55577 0.3699,-0.97442 0.21261,-0.90355 0.50001,-0.79248 -4.68475,-1.81049 -2.12817,-0.41786 -3.99458,-0.84033 -4.14759,-0.93882 -0.153,-0.0985 -0.34063,-1.17446 -0.41694,-2.39104 -0.16517,-2.6333 -0.20392,-2.59672 3.04146,-2.87092 1.24878,-0.10551 2.93317,-0.26692 3.74309,-0.35869 l 1.47257,-0.16685 -0.76304,-0.95632 -0.76304,-0.95631 -4.15429,-1e-5 -4.15428,-10e-6 -1.61326,-1.9967 c -0.88729,-1.09818 -1.56427,-2.14369 -1.50438,-2.32334 0.0599,-0.17966 1.11235,-0.66144 2.3388,-1.07063 l 2.22993,-0.74398 -2.46784,-2.07815 -2.46783,-2.07814 -3.08152,0.78937 -3.08152,0.78937 -2.65827,-1.43842 c -2.96935,-1.60674 -2.89999,-1.46891 -2.395,-4.75902 l 0.21925,-1.42849 -6.62707,-2.14329 -6.62707,-2.14329 -1.98669,1.35845 -1.9867,1.35844 -3.24039,-0.84232 c -1.78222,-0.46328 -3.39292,-0.96892 -3.57935,-1.12363 -0.18642,-0.15472 -0.41711,-0.94123 -0.51264,-1.74779 -0.0955,-0.80657 -0.29364,-1.53997 -0.44026,-1.62978 -0.14662,-0.0898 -3.32113,-0.72563 -7.05447,-1.41293 l -6.78788,-1.24964 -1.78936,1.21514 c -1.72892,1.17408 -1.8432,1.20878 -3.38319,1.02715 -5.63215,-0.66428 -9.30233,-1.19235 -9.5923,-1.38017 -0.18452,-0.11952 -0.4899,-0.90725 -0.67861,-1.75052 -0.18872,-0.84326 -0.43714,-1.68534 -0.55206,-1.87128 -0.18949,-0.30659 -10.65587,-1.67559 -12.91502,-1.68928 -0.74683,-0.005 -1.02289,0.24325 -2.1286,1.91054 -1.11854,1.68664 -1.3723,1.91181 -2.12192,1.88281 -0.46829,-0.0181 -3.72505,-0.12981 -7.23725,-0.24822 -3.51219,-0.11842 -6.54545,-0.34274 -6.74058,-0.4985 -0.19512,-0.15576 -0.35651,-0.87421 -0.35864,-1.59656 -0.002,-0.72235 -0.0809,-1.60072 -0.17501,-1.95194 l -0.17113,-0.63858 h -6.49461 -6.49462 v 1.72154 c 0,2.72233 -0.10867,2.8148 -3.34479,2.84637 -1.51646,0.0148 -4.35366,0.11989 -6.30487,0.23356 -4.06641,0.23688 -4.02536,0.25042 -6.56244,-2.16458 l -1.59569,-1.51892 -5.35492,0.43436 c -2.94521,0.2389 -5.47955,0.43436 -5.63186,0.43436 -0.15232,0 0.3892,0.67453 1.20338,1.49895 0.81418,0.82442 1.48033,1.716 1.48033,1.98129 0,0.57632 -0.0477,0.58628 -5.67628,1.18665 -2.41951,0.25807 -5.53474,0.61793 -6.92273,0.79967 -2.46913,0.32332 -2.55187,0.3149 -3.83149,-0.39005 -0.71932,-0.39628 -2.26573,-1.23632 -3.43646,-1.86677 l -2.12861,-1.14626 -4.60822,0.9039 c -2.53452,0.49715 -4.67905,0.97474 -4.76561,1.0613 -0.0866,0.0866 0.74805,0.82864 1.85472,1.64904 3.08101,2.28405 3.32014,2.10454 -5.67822,4.26266 l -4.96674,1.1912 -3.7759,-1.86602 -3.77589,-1.86601 -1.47466,0.58794 c -0.81106,0.32337 -2.20903,0.85511 -3.10659,1.18165 -0.89756,0.32654 -1.62605,0.66403 -1.61887,0.74998 0.007,0.0859 0.96506,0.9011 2.12861,1.81145 1.16354,0.91035 2.11554,1.75679 2.11554,1.88099 0,0.36238 -0.61095,0.7295 -2.12861,1.27909 -0.78048,0.28264 -2.3804,0.94797 -3.55536,1.47852 l -2.13629,0.96463 -4.32922,-1.57156 c -2.38107,-0.86435 -4.46766,-1.57155 -4.63686,-1.57155 -0.34953,0 -3.62731,2.32325 -3.63998,2.57998 -0.005,0.0922 1.30082,0.71794 2.90082,1.39061 1.6,0.67268 3.07786,1.37725 3.28413,1.56573 0.48188,0.4403 0.17629,0.75687 -2.26769,2.34919 l -1.82572,1.1895 -3.2993,-0.59445 -3.2993,-0.59446 -1.1653,0.93646 c -1.34917,1.08422 -1.32404,1.11124 1.6907,1.81734 3.12977,0.73304 3.20415,0.88279 1.50731,3.03481 l -1.41385,1.79314 h -3.08874 -3.08874 l -0.51481,1.38627 c -0.28315,0.76244 -0.45609,1.445 -0.3843,1.51678 0.0718,0.0718 1.32114,0.21427 2.77634,0.31662 l 2.64581,0.18609 v 1.8242 c 0,1.00331 -0.14177,1.96611 -0.31503,2.13955 -0.17327,0.17345 -1.54622,0.73974 -3.051,1.25843 -1.50478,0.5187 -2.73597,1.07368 -2.73597,1.23329 0,0.89984 0.70826,2.48431 1.10923,2.4815 0.24846,-0.002 1.64595,-0.37596 3.10552,-0.8316 1.45957,-0.45564 2.80059,-0.76564 2.98004,-0.6889 0.17945,0.0768 0.77328,0.84898 1.31963,1.71607 0.54634,0.86709 1.79157,2.31104 2.76718,3.20877 0.97561,0.89774 1.77384,1.82166 1.77384,2.05316 0,0.2315 -0.65837,0.83017 -1.46305,1.33039 l -1.46305,0.90948 1.48958,1.00314 1.48957,1.00313 1.64513,-0.87684 c 0.90482,-0.48227 1.81815,-0.87685 2.02962,-0.87685 0.21147,0 2.10934,0.88058 4.21748,1.95684 2.10814,1.07626 4.53542,2.2459 5.39396,2.59921 2.57773,1.06078 2.64551,1.2439 1.00112,2.70466 -0.77621,0.68954 -1.32922,1.2537 -1.22891,1.2537 0.10031,0 1.684,0.32466 3.51932,0.72147 l 3.33694,0.72147 1.27505,-0.91567 1.27504,-0.91567 1.72558,0.47835 c 0.94906,0.26309 4.24797,1.13704 7.33089,1.94212 6.19099,1.61672 6.09299,1.54651 4.88839,3.5023 -0.38458,0.62439 -0.69988,1.27619 -0.70068,1.44845 -8.9e-4,0.19093 1.2515,0.44022 3.20808,0.63858 5.07178,0.51419 4.96138,0.53248 5.60796,-0.92922 0.30523,-0.69004 0.70783,-1.30557 0.89466,-1.36785 0.18683,-0.0623 1.30286,0.0578 2.48006,0.26672 1.17721,0.20898 5.11291,0.80634 8.74599,1.32749 3.63309,0.52114 6.68067,1.02259 6.77241,1.11432 0.0917,0.0917 0.0184,1.01886 -0.16294,2.06027 -0.18136,1.04141 -0.29147,1.93021 -0.24469,1.97512 0.0468,0.0449 2.25166,0.12574 4.89975,0.17965 l 4.8147,0.098 0.34347,-1.53098 c 0.39857,-1.77659 0.72845,-2.07406 2.0892,-1.88389 0.97601,0.1364 8.23659,0.53921 16.00314,0.88783 l 3.94105,0.17691 -0.15863,2.09746 -0.15864,2.09746 h 5.21624 5.21623 z m -18.93213,-7.34377 c -19.9383,-1.10584 -38.81793,-4.31684 -51.71901,-8.79622 -14.0039,-4.86229 -22.62259,-12.56836 -21.8158,-19.50577 0.6268,-5.38971 6.24978,-10.71364 15.77871,-14.93956 12.68711,-5.6265 30.74536,-9.38164 54.20843,-11.27244 6.03116,-0.48603 31.87173,-0.48748 37.88913,-0.002 25.65053,2.06891 44.15725,6.15291 57.03002,12.58519 7.3233,3.65932 11.56154,7.7373 12.80127,12.31723 0.9743,3.59937 -0.29546,7.12648 -3.82853,10.63479 -10.32015,10.24782 -35.75365,17.11569 -70.40187,19.01079 -6.07264,0.33215 -23.71781,0.31337 -29.94235,-0.0319 z m 28.66518,-1.10316 c 33.94517,-1.63131 60.56587,-8.42861 69.33904,-17.70494 2.01985,-2.1357 2.70284,-3.6004 2.72698,-5.84813 0.0265,-2.46612 -0.80987,-4.15011 -3.24197,-6.52771 -13.71237,-13.40515 -63.86964,-20.74327 -110.40276,-16.15219 -30.12608,2.97232 -51.80393,10.41255 -56.57058,19.41604 -0.87034,1.64396 -0.8398,4.65506 0.0646,6.37316 0.92172,1.75092 3.38145,4.25328 5.72901,5.82833 2.49644,1.67493 8.60852,4.59726 12.38736,5.92268 13.34452,4.68059 33.0811,7.82719 55.13459,8.79013 4.92314,0.21496 19.52606,0.15771 24.8337,-0.0974 z m -22.50476,-7.9649 c -16.65945,-1.0608 -29.54748,-4.97188 -31.46323,-9.54801 -0.28559,-0.68219 -0.38234,-2.68666 -0.38234,-7.92185 0,-6.95592 0.005,-7.01763 0.70658,-8.21426 4.50759,-7.69161 37.3259,-11.61802 62.44198,-7.4706 9.6608,1.59529 16.8284,4.496 18.51052,7.49116 0.61279,1.09113 0.63775,1.40865 0.64224,8.16876 0.005,7.91522 -0.0548,8.22376 -1.93157,9.91724 -6.08593,5.49168 -27.86652,8.89295 -48.52418,7.57756 z m 24.91718,-14.57518 c 10.59442,-1.28399 17.90181,-3.24396 21.80019,-5.8472 3.93995,-2.631 3.25788,-5.23023 -2.04581,-7.79615 -12.81154,-6.19823 -44.54328,-7.39944 -63.86474,-2.41761 -7.45281,1.92162 -11.85328,4.71923 -11.3807,7.23529 0.7753,4.12778 12.27679,7.84452 28.52876,9.21914 4.8068,0.40657 22.49034,0.14851 26.9623,-0.39347 z m -164.9022,1.35462 c 22.93784,-12.1222 41.63869,-22.14792 41.55744,-22.27938 -0.0812,-0.13145 -1.29039,-0.239 -2.68699,-0.239 h -2.53929 l -29.58587,15.5083 c -36.12585,18.93642 -49.98733,26.22734 -50.1259,26.36542 -0.12472,0.12429 1.34493,2.68503 1.54099,2.68503 0.074,0 18.90179,-9.91816 41.83962,-22.04037 z m -2.52043,-14.58768 c 21.29221,-9.55896 38.76043,-17.41913 38.81827,-17.46706 0.0578,-0.0479 -0.28704,-0.58235 -0.76642,-1.18761 -0.47937,-0.60525 -1.41111,-2.10071 -2.07053,-3.32323 l -1.19894,-2.22276 -1.44041,1.67463 c -3.38018,3.92987 -0.12598,2.36446 -38.90381,18.71445 -19.51219,8.22697 -35.74861,15.10389 -36.08092,15.28203 -0.59789,0.32051 -0.58976,0.35468 0.77654,3.26487 0.95227,2.02833 1.50058,2.89499 1.76693,2.79278 0.2124,-0.0815 17.80708,-7.96915 39.09929,-17.5281 z m -9.39332,-3.4547 c 21.15121,-8.92059 38.50005,-16.24914 38.55296,-16.28567 0.11701,-0.0808 -1.3562,-6.71567 -1.52965,-6.88912 -0.0676,-0.0676 -17.71686,5.85584 -39.22056,13.16321 -21.50371,7.30737 -39.62829,13.46586 -40.27685,13.68553 l -1.17919,0.39941 1.95943,5.87166 c 1.07768,3.22941 2.02447,6.04455 2.10398,6.25587 0.0865,0.22999 0.34296,0.31079 0.63883,0.2013 0.27186,-0.10061 17.79983,-7.48159 38.95105,-16.40219 z m 55.9113,-9.1145 v -3.78706 l 1.34812,-1.14432 c 0.74146,-0.62937 1.79512,-1.85653 2.34146,-2.72702 1.27623,-2.03342 1.82689,-2.07021 2.61464,-0.17468 0.72233,1.73813 0.57046,1.86124 3.48217,-2.82274 l 2.18569,-3.51604 -1.48565,-2.84088 -1.48564,-2.84087 0.91155,-3.86038 c 0.50135,-2.1232 1.19152,-5.58454 1.5337,-7.69186 0.34218,-2.10732 0.72241,-3.98839 0.84494,-4.18016 0.17152,-0.26843 0.54672,-0.2256 1.63019,0.18609 l 1.4074,0.53477 0.13249,-0.61182 c 0.20236,-0.93445 1.28441,-10.65251 1.28058,-11.50117 -0.003,-0.61858 -0.29622,-0.90787 -1.7069,-1.68275 l -1.70354,-0.93575 0.075,-8.82955 0.075,-8.82954 1.23633,-0.45068 1.23633,-0.45068 -0.17679,-3.54899 c -0.0972,-1.95195 -0.25128,-4.5328 -0.3423,-5.73523 l -0.1655,-2.18624 -1.59613,-0.0843 -1.59613,-0.0843 -0.60626,-3.83149 c -0.33344,-2.10732 -0.88688,-5.06271 -1.22985,-6.56755 l -0.6236,-2.73606 1.88481,-3.26591 1.8848,-3.2659 -0.93492,-2.5834 c -0.5142,-1.42087 -1.00385,-2.58183 -1.08811,-2.57992 -0.0843,0.002 -0.69996,0.94745 -1.36823,2.10119 -1.30247,2.24864 -1.85721,2.87208 -2.30778,2.59362 -0.15611,-0.0965 -1.11477,-1.90339 -2.13036,-4.01534 l -1.84652,-3.83992 1.0793,-3.743019 1.07931,-3.743024 -1.18403,-1.403116 c -0.65122,-0.771714 -1.30825,-1.444521 -1.46007,-1.495127 -0.15182,-0.05061 -0.64625,1.448729 -1.09874,3.331856 -0.45249,1.883127 -0.95889,3.53689 -1.12534,3.67503 -0.17925,0.14877 -1.22608,0.0563 -2.56774,-0.226675 l -2.26511,-0.477837 -0.74528,-4.197525 c -0.4099,-2.308638 -0.80847,-4.260724 -0.88572,-4.337969 -0.31712,-0.317124 -1.63286,0.570082 -1.63286,1.101044 0,0.535379 0.98927,6.758155 1.28008,8.052012 0.0999,0.44462 -0.24892,1.06985 -1.25429,2.24802 -0.76599,0.89765 -1.88338,2.56678 -2.48309,3.70917 -0.59971,1.1424 -1.2555,2.07846 -1.45732,2.08014 -0.20182,0.002 -1.04358,-0.5078 -1.87058,-1.13219 -0.827,-0.62439 -1.62367,-1.13526 -1.77037,-1.13526 -0.25601,0 -2.37791,4.01739 -2.37791,4.5021 0,0.12952 0.89069,0.86178 1.97932,1.62723 1.08863,0.76546 2.04701,1.56316 2.12974,1.77268 0.0827,0.20952 -0.166,1.42283 -0.55274,2.69623 -0.88484,2.91351 -1.95393,7.89589 -2.5826,12.03591 -0.54234,3.57157 -0.41464,3.44833 -2.89044,2.78924 -1.78512,-0.47521 -1.66484,-0.73343 -1.90677,4.09324 -0.09,1.79512 -0.23657,4.03706 -0.32576,4.98207 l -0.16217,1.71822 1.79266,0.41039 1.79266,0.41039 -0.0321,10.20053 -0.0321,10.20054 -1.85234,1.29392 c -1.01878,0.71165 -1.91781,1.35966 -1.99783,1.44001 -0.08,0.0804 0.13625,2.12381 0.48062,4.54102 l 0.62613,4.39493 1.7562,0.28381 c 0.96591,0.1561 1.87784,0.41153 2.02651,0.56763 0.14866,0.1561 0.61009,2.31834 1.02539,4.80499 0.4153,2.48665 1.05996,5.67956 1.43257,7.09535 l 0.67747,2.57416 -2.07587,3.04485 -2.07586,3.04485 0.7379,3.27001 c 0.40584,1.7985 0.80197,3.26924 0.88029,3.2683 0.0783,-9.3e-4 1.07279,-1.08652 2.20995,-2.41241 1.13715,-1.3259 2.22274,-2.41014 2.41241,-2.40942 0.18968,7.1e-4 0.95926,1.20881 1.71019,2.68467 0.75092,1.47585 1.94995,3.33362 2.66451,4.12838 l 1.29919,1.44502 -0.4692,4.02996 c -0.25807,2.21648 -0.4673,4.12037 -0.46496,4.23088 0.002,0.11051 0.99405,0.24445 2.20381,0.29765 1.20975,0.0532 2.74235,0.12243 3.40576,0.15385 l 1.20621,0.0571 z m 0.52534,-29.97262 c -5.09476,-0.17903 -5.14606,-0.20159 -6.48388,-2.8523 -1.63767,-3.24482 -2.78659,-8.37832 -3.41653,-15.26545 -0.45057,-4.92596 -0.20939,-17.80737 0.41028,-21.91415 0.88048,-5.83519 2.4064,-10.84772 3.87076,-12.71513 1.06115,-1.35323 1.51586,-1.45478 6.56228,-1.4655 4.59742,-0.01 4.75531,0.009 5.54743,0.676 4.60645,3.87607 6.91761,24.82531 4.46439,40.46694 -1.15212,7.34593 -2.93892,11.87173 -5.08998,12.89247 -0.51783,0.24572 -1.04992,0.42122 -1.18243,0.38998 -0.1325,-0.0312 -2.23955,-0.12702 -4.68232,-0.21286 z m 6.56879,-2.32803 c 1.11124,-1.53403 2.35676,-5.4799 3.08047,-9.75906 2.54056,-15.02202 0.60928,-36.21304 -3.67436,-40.31703 -1.28449,-1.23063 -2.11672,-0.77878 -3.45596,1.87635 -1.27991,2.53751 -2.2375,6.1929 -2.93542,11.2054 -0.72775,5.22664 -0.73812,19.49602 -0.0178,24.40799 1.65959,11.3162 4.38057,16.20654 7.00302,12.58635 z m -62.9255,19.89825 c 24.98717,-7.28742 40.19454,-11.85311 40.12075,-12.04541 -0.0654,-0.17031 -0.46168,-2.28449 -0.88072,-4.69815 -0.41904,-2.41367 -0.81557,-4.66203 -0.88119,-4.99634 -0.0975,-0.49653 -0.43214,-0.66296 -1.82753,-0.90875 -1.65137,-0.29088 -3.02641,-0.0427 -41.31145,7.45727 -21.78177,4.267 -39.64934,7.80498 -39.70571,7.86219 -0.23112,0.23455 2.39447,14.78235 3.2885,18.22085 0.16578,0.6376 0.42259,1.03753 0.62033,0.96605 0.18559,-0.0671 18.44525,-5.40305 40.57702,-11.85771 z m -7.65507,-15.77752 c 22.81998,-4.46965 41.53828,-8.16761 41.59622,-8.21769 0.15649,-0.13528 -1.02316,-8.08274 -1.2305,-8.29008 -0.1541,-0.15411 -78.31542,5.10122 -82.424215,5.54195 l -1.527205,0.16381 0.169326,2.15611 c 0.09313,1.18586 0.388344,5.4448 0.656032,9.46432 0.385375,5.78665 0.568189,7.3082 0.878083,7.3082 0.215257,0 19.062269,-3.65698 41.882259,-8.12662 z m -44.677872,-9.94336 -0.06127,-1.89259 2.16757,-2.04472 2.167569,-2.04472 -0.145748,-1.95182 c -0.08016,-1.0735 -0.214754,-2.75005 -0.299094,-3.72566 l -0.153346,-1.77384 H 54.41774 11.543651 l 0.193144,2.34147 c 0.451048,5.46801 2.533866,10.1179 5.402943,12.06208 l 1.361203,0.9224 H 56.08918 93.677418 Z m 47.062512,-9.48409 c 22.28892,-0.75622 40.89707,-1.41138 41.35144,-1.4559 l 0.82614,-0.0809 -0.066,-7.51771 c -0.0363,-4.13475 -0.12354,-7.57531 -0.19394,-7.6457 -0.14447,-0.14448 -80.29788,-5.37948 -82.67837,-5.39992 l -1.534327,-0.0132 0.163475,11.91049 c 0.08991,6.55077 0.250244,12.05089 0.356295,12.22248 0.131141,0.21219 0.361897,0.15898 0.721381,-0.16635 0.474766,-0.42965 4.653266,-0.61828 41.053856,-1.85328 z m -43.341652,-14.42522 0,-9.62451 -1.016751,-2.36662 -1.016751,-2.36661 0.307996,-2.98004 c 0.169397,-1.63903 0.307645,-3.39838 0.307217,-3.90967 l -7.79e-4,-0.92962 -37.81818,0.0257 c -24.212261,0.0165 -38.298023,0.12851 -39.151922,0.31147 -2.657006,0.5693 -4.969979,3.08029 -6.171537,6.69989 -0.947367,2.85388 -1.716364,10.46178 -1.714259,16.95964 0.001,3.12196 0.081,6.15521 0.177758,6.74058 l 0.175918,1.0643 h 42.960645 42.960645 z m 82.117622,-9.60386 c 0.0974,-1.20976 0.26159,-3.74568 0.36489,-5.6354 l 0.18783,-3.43584 -0.67885,-0.15929 c -2.45285,-0.57553 -80.615871,-14.73193 -80.727028,-14.62078 -0.139831,0.13983 -2.148903,18.17491 -2.035107,18.26879 0.05882,0.0485 80.894325,7.67473 82.113425,7.74676 0.54541,0.0322 0.61329,-0.15738 0.77484,-2.16424 z m 5.39708,-12.70752 c 0.26466,-1.72084 0.79667,-4.52496 1.18225,-6.23137 0.38558,-1.70641 0.60601,-3.18872 0.48985,-3.29402 -0.14788,-0.13405 -75.28933,-23.614605 -81.28465,-25.40021 -0.3944,-0.117466 -0.63229,0.537677 -1.47311,4.056938 -1.556,6.512712 -3.63135,18.299962 -3.2833,18.648012 0.0698,0.0698 18.0691,3.39681 39.99837,7.39329 21.92927,3.99648 40.70156,7.50374 41.71619,7.79391 1.01464,0.29018 1.91869,0.44539 2.009,0.34493 0.0903,-0.10047 0.38074,-1.59064 0.6454,-3.31148 z m -0.16376,-19.57959 1.19807,-2.41571 -1.48958,-0.7182 c -0.81928,-0.395 -18.22041,-8.427029 -38.66919,-17.848944 l -37.1796,-17.130754 -2.89212,5.861113 c -1.59067,3.223613 -2.80397,5.944513 -2.69623,6.046446 0.17024,0.161062 79.98542,28.566229 80.38097,28.606519 0.0823,0.008 0.68874,-1.07183 1.34768,-2.40047 z m 8.25858,-4.77053 c 0.51802,-0.75243 0.89762,-1.40224 0.84355,-1.44403 -1.53541,-1.18647 -8.83229,-4.738821 -39.4256,-19.193591 -20.17773,-9.533602 -36.81572,-17.358708 -36.97331,-17.389125 -0.33388,-0.06444 -3.93156,5.172826 -3.80801,5.54346 0.0457,0.13724 16.54377,7.832585 36.66228,17.100767 24.27141,11.181341 37.20345,17.285879 38.4347,18.142999 l 1.8556,1.29177 0.73447,-1.34209 c 0.40395,-0.73816 1.1583,-1.95772 1.67632,-2.71016 z m 1.99592,-12.5117 c 0.67975,-0.376667 0.67495,-0.3837 -0.99335,-1.455613 -21.25991,-13.659889 -70.48865,-44.796509 -70.85036,-44.812047 -0.43875,-0.01885 -7.12802,4.374632 -6.94271,4.559938 0.27359,0.273593 77.59286,42.092982 77.81955,42.089978 0.1561,-0.0021 0.59119,-0.174084 0.96687,-0.382256 z"
       id="path1" /></g></svg>
