<?xml version="1.0" encoding="UTF-8" standalone="no"?>
<!-- Created with Inkscape (http://www.inkscape.org/) -->

<svg
   width="512mm"
   height="512mm"
   viewBox="0 0 512 512"
   version="1.1"
   id="svg1"
   xml:space="preserve"
   inkscape:version="1.4 (e7c3feb100, 2024-10-09)"
   sodipodi:docname="spur_gear_icon.svg"
   xmlns:inkscape="http://www.inkscape.org/namespaces/inkscape"
   xmlns:sodipodi="http://sodipodi.sourceforge.net/DTD/sodipodi-0.dtd"
   xmlns="http://www.w3.org/2000/svg"
   xmlns:svg="http://www.w3.org/2000/svg"><sodipodi:namedview
     id="namedview1"
     pagecolor="#ffffff"
     bordercolor="#000000"
     borderopacity="0.25"
     inkscape:showpageshadow="2"
     inkscape:pageopacity="0.0"
     inkscape:pagecheckerboard="0"
     inkscape:deskcolor="#d1d1d1"
     inkscape:document-units="mm"
     inkscape:zoom="0.17461609"
     inkscape:cx="1022.2426"
     inkscape:cy="292.0693"
     inkscape:window-width="956"
     inkscape:window-height="1015"
     inkscape:window-x="960"
     inkscape:window-y="0"
     inkscape:window-maximized="1"
     inkscape:current-layer="layer1" /><defs
     id="defs1" /><g
     inkscape:label="Layer 1"
     inkscape:groupmode="layer"
     id="layer1"><path
       style="fill:#070706;stroke:none;stroke-width:1.14747"
       d="m 133.5586,217.33369 c -0.72546,-4.17776 -4.7406,-3.41516 -8.1973,-3.41554 8.40096,-9.09075 25.26523,1.88188 31.00232,8.88039 12.12312,14.78872 8.73746,35.41878 -7.09356,46.30056 -5.846,4.01835 -18.21708,8.35905 -23.90876,2.20006 10.39721,-10e-4 21.37629,-3.8135 27.34748,-12.97903 8.81141,-13.52518 3.48889,-36.78229 -13.00222,-41.66955 -0.55811,3.86599 2.91822,5.18141 5.45485,7.57796 4.2475,4.01294 12.83921,16.47352 7.22795,22.26159 -2.0342,2.09832 -5.26693,1.46745 -7.90106,1.77841 -7.22645,0.85311 -14.58466,0.48809 -21.85942,0.48809 H 36.557364 9.2330739 c -2.7579654,0.004 -7.521377,-0.49631 -8.58417138,2.831 -5.15674202,16.14425 21.83170448,10.83114 31.12671048,10.83114 24.843169,0 49.598956,-0.68311 74.458687,-0.68311 11.04723,0 24.07878,-1.87859 34.83847,0.68311 -5.87835,7.42122 -20.27662,4.78175 -28.69049,4.78175 H 33.824935 9.9161813 c -2.0841984,0 -6.7165091,-0.80311 -8.1382534,1.17699 -2.7808827,3.87298 8.1879733,2.92801 9.5044681,2.92217 5.931868,-0.0263 14.90627,-1.66696 20.483201,0.41112 2.863648,1.06706 4.706473,3.97746 7.526833,5.29358 2.775123,1.29502 8.193211,1.2274 9.48075,4.60516 0.932279,2.44576 -2.47026,4.50285 -3.752347,6.11109 -2.323468,2.91457 -3.735003,7.2145 -2.552699,10.89227 3.110278,9.67507 14.510462,0.61196 18.018539,6.45263 2.357291,3.9247 -7.377676,10.6636 -4.978358,16.77302 3.879128,9.87751 15.051628,-1.27479 19.687301,3.06873 4.128111,3.86791 -3.68956,12.43206 -0.676263,18.11551 3.842804,7.24796 12.340374,4.57525 18.722741,7.41721 3.936449,1.75281 3.616556,6.5803 6.915936,9.11441 4.56542,3.50647 10.6653,2.73021 15.6266,4.99837 4.21392,1.9265 3.16448,7.44512 7.54,9.29522 6.60767,2.79389 13.81723,0.73073 20.48057,2.55586 3.59789,0.98547 5.30826,4.77474 8.89039,5.5766 4.31208,0.96525 9.8913,-0.0179 14.33526,-0.0179 12.32402,0 24.55201,-0.68311 36.88779,-0.68311 8.31932,0 19.38152,2.26547 27.32428,0.16128 5.39599,-1.42946 9.51477,-5.44047 15.02836,-6.88586 4.85666,-1.27319 10.56121,0.32254 15.02837,-2.21696 5.96638,-3.39178 9.27473,-10.80294 16.39458,-12.23478 -0.36974,2.51479 -1.28421,4.9557 -1.32828,7.51419 -0.23903,13.8752 17.29887,5.45767 22.84407,11.90905 3.5522,4.1327 -5.12573,10.02472 0.5787,14.78695 5.61016,4.68351 13.99845,-0.0361 20.22814,2.50157 4.42243,1.80141 3.54582,8.07004 8.23784,9.91556 4.81386,1.89347 13.19773,-0.17602 18.43335,-0.17602 h 38.93712 c 4.5265,0 12.07712,1.45314 16.23909,-0.41219 4.53488,-2.03247 5.13344,-13.33527 9.74637,-17.07926 4.80606,-3.90077 11.62345,-1.8755 16.27654,-6.00304 3.79145,-3.36318 2.06729,-10.91788 5.77215,-13.37434 3.90058,-2.58623 10.20862,1.48067 13.68323,-2.28546 4.09235,-4.43566 1.70952,-14.35589 7.31652,-17.42132 3.40827,-1.86338 9.16798,-0.8054 12.93896,-0.8054 9.89689,0 20.19036,0.82275 30.04672,-0.0401 5.12217,-0.44838 8.98284,-5.73016 14.35525,-6.79101 -0.47255,-6.06592 -8.41526,-4.09835 -12.97903,-4.09865 -13.86886,-8.7e-4 -27.79289,-1.36621 -41.66954,-1.36621 l -4.09865,-28.69051 c 14.22921,-3.68149 31.12491,-1.36621 45.76819,-1.36621 2.01254,0 14.37389,1.25089 13.14877,-2.55532 -0.96375,-2.99418 -11.29441,-1.54332 -13.83188,-1.54332 -13.45197,0 -30.67507,2.57419 -43.68884,-0.90027 -3.38165,-0.90286 -2.88094,-4.90694 -5.68463,-6.20173 -4.43148,-2.04657 -11.15862,1.49124 -15.17071,-2.18793 -2.64207,-2.42285 -1.02649,-7.82088 -4.60512,-9.42489 -5.90836,-2.64825 -14.75361,2.35862 -20.26608,-1.50748 -5.22971,-3.66778 -0.75937,-14.93786 -6.2597,-16.44834 -4.05445,-1.11343 -9.43029,-0.21715 -13.62208,-0.21715 -16.40983,0 -39.03184,4.25284 -53.26919,-4.82972 -2.87436,-1.83369 -3.85903,-4.43455 -2.05565,-7.46359 3.30808,-5.55639 12.71627,-9.66285 9.62679,-17.75287 -2.17641,-5.69906 -14.06683,-5.80094 -12.68128,-13.67006 1.33546,-7.58448 13.89576,-7.17371 10.94869,-17.76024 -2.05845,-7.39438 -12.49401,-1.28658 -15.50957,-8.8862 -2.59146,-6.53081 5.33175,-12.902 1.51539,-20.46054 -3.3387,-6.6125 -12.28939,-0.63806 -16.34822,-6.89115 -3.49792,-5.38898 0.73364,-12.37872 -3.8978,-17.57736 -3.92557,-4.40635 -11.71864,0.44764 -14.51444,-4.97518 -2.64384,-5.12809 3.70739,-11.37808 -2.93694,-15.7684 -6.18303,-4.08552 -15.82621,2.37716 -22.37968,-1.91021 -3.72424,-2.43643 -2.13496,-7.70462 -5.15915,-10.67825 -3.80972,-3.74609 -10.70492,-2.74898 -15.42526,-4.05019 -3.16689,-0.87303 -5.51613,-3.32536 -8.88039,-3.6838 -17.52548,-1.86728 -36.32594,-0.75691 -53.96547,-0.75691 -7.25818,0 -16.2962,-2.02489 -23.22565,-1.11371 -3.27298,0.43036 -5.68102,2.97242 -8.88039,3.61158 -6.33506,1.26565 -14.6438,-2.19329 -20.49059,-0.0359 -4.43945,1.63818 -4.61925,7.26064 -8.89357,9.15449 -6.36581,2.82049 -14.36047,-0.69066 -20.33666,3.03075 -4.895515,3.04846 -0.59057,9.64026 -4.461817,12.77664 -5.461749,4.42495 -14.772602,1.11369 -20.122679,6.2386 -6.538756,6.26358 4.29493,14.89261 -1.133233,19.97931 -2.456301,2.30179 -5.355183,-0.0877 -7.900537,-0.86495 -3.806205,-1.16204 -9.250935,-0.0647 -11.606496,3.36651 -5.079567,7.39917 7.331499,14.04979 4.445461,19.81537 -3.170733,6.33436 -17.791933,-3.6251 -19.37631,7.38083 -0.913182,6.34346 4.148373,10.34523 7.947981,14.4607 1.472836,1.59529 3.376364,4.32126 1.265003,6.20805 -2.309686,2.06402 -7.15476,1.19016 -9.999928,1.19016 H 14.697931 c -2.46192,0 -10.6834939,-1.30256 -12.1757469,1.05523 -1.75971397,2.78035 5.6457763,2.37487 6.7108898,2.47628 7.8885251,0.75122 15.9354041,-0.11596 23.9087531,-0.11596 H 133.5586 m -88.80395,56.01473 v -1.36621 c 4.962263,-1.18142 20.782009,-3.16366 24.92657,-0.008 3.423586,2.60681 5.0552,11.7434 6.786253,15.7194 3.885525,8.92444 9.906839,17.30334 16.300244,24.59185 18.260653,20.81722 47.413933,36.09741 75.629353,35.34447 17.69571,-0.4722 35.62155,-3.59415 51.23303,-12.40872 14.61028,-8.24928 27.20174,-18.79764 37.06119,-32.49926 7.25073,-10.07625 12.7504,-22.07631 15.61713,-34.15535 15.08117,-63.5452 -32.98931,-126.73513 -98.4465,-129.7192 -15.22925,-0.69427 -31.94883,3.76999 -45.76818,9.78223 -19.45732,8.46508 -35.775018,23.49563 -46.977857,41.37964 -4.076521,6.5077 -6.024849,16.67847 -10.96187,22.24631 -2.086847,2.3535 -10.251394,2.77995 -12.519941,0.47228 -2.304987,-2.34474 -2.350443,-6.36602 -4.810738,-8.94048 -2.606452,-2.72738 -8.070799,-6.36249 -6.279737,-10.95449 2.454958,-6.29413 13.890811,0.55303 18.014837,-5.63037 4.894313,-7.33829 -8.011668,-12.8197 -4.072815,-19.63722 3.947463,-6.83243 12.932883,2.47789 18.350076,-1.28872 7.980956,-5.54923 -4.227597,-15.7694 1.736757,-20.84533 6.288881,-5.35212 12.58723,6.22545 18.702178,2.78356 8.15306,-4.58906 -1.049581,-19.08827 6.98971,-21.99488 7.53878,-2.72568 10.2806,10.34865 17.03709,9.08227 8.62865,-1.6173 2.75401,-15.82675 8.47718,-19.96087 7.66043,-5.53344 10.17584,13.92498 17.48882,12.01866 7.23583,-1.88617 4.16579,-14.41205 11.61807,-15.65085 7.88437,-1.31062 6.32365,13.74275 13.66005,15.11797 7.95394,1.49096 8.64294,-12.89632 15.71832,-13.77864 8.09016,-1.00886 3.27874,15.0031 10.9255,16.61705 5.46532,1.15353 6.92524,-5.75375 10.95607,-7.62491 6.90967,-3.20758 5.87926,13.12567 11.58593,15.46638 7.02762,2.88255 11.43885,-6.25686 17.72865,-4.42018 7.68629,2.24445 0.0769,14.62413 6.89011,19.68363 5.62548,4.17745 11.70227,-4.10111 16.06882,0.0216 6.54642,6.18086 -7.6344,18.01489 4.39543,22.4598 4.28696,1.58401 16.56013,-3.41229 17.30798,4.52137 0.67265,7.1358 -13.20097,8.3051 -7.7387,17.03972 3.52961,5.64414 18.57319,5.35204 18.26203,12.32545 -0.37045,8.30183 -16.70965,6.27899 -10.46904,17.75868 2.9384,5.40524 16.54371,8.09885 15.68407,14.34208 -0.95328,6.92344 -13.60564,3.2255 -12.83832,11.616 0.50416,5.51277 13.06326,10.20061 10.44061,15.55544 -2.92164,5.96533 -14.39774,-2.79842 -16.68027,6.31399 -1.83513,7.32639 12.34301,13.8087 8.00488,20.3272 -4.30464,6.46818 -14.80359,-2.49634 -18.92671,5.63353 -3.16683,6.24431 8.42473,12.81374 5.11855,17.33596 -1.85165,2.53268 -7.7881,0.72629 -10.21496,0.24877 -3.45631,-0.68006 -7.1139,0.92239 -9.34371,3.65061 -4.54735,5.56379 6.45761,13.53948 0.79539,18.54827 -5.39875,4.77575 -12.51369,-5.52233 -18.62995,-1.03521 -6.89187,5.05615 3.38045,15.13097 -3.78662,19.16813 -6.04668,3.40606 -10.79304,-10.1515 -17.46402,-6.66663 -6.90587,3.60758 -0.52588,17.13236 -6.99396,19.50229 -5.55018,2.03359 -8.28789,-11.46555 -14.25355,-11.87637 -9.37544,-0.64565 -4.15963,14.49589 -10.96766,16.02298 -7.58025,1.70033 -8.57852,-11.56615 -15.67403,-12.40505 -8.15975,-0.9647 -7.92419,13.59759 -15.04522,14.74427 -7.28798,1.17357 -5.79437,-16.45039 -13.64529,-18.35482 -6.17819,-1.49867 -12.64403,14.2724 -18.03172,9.00006 -4.89974,-4.79489 4.21044,-14.19016 -3.21841,-19.5956 -4.38111,-3.18786 -9.36871,0.21455 -12.90524,2.99494 -1.39423,1.09612 -3.77306,3.55165 -5.76213,2.45674 -2.088593,-1.1497 -1.28983,-4.78271 -1.01148,-6.61761 0.67064,-4.42104 1.15043,-9.48986 -3.536766,-11.98125 -7.266034,-3.86213 -11.165937,8.47792 -17.540993,6.07416 -2.675515,-1.00882 -1.949005,-4.3488 -1.20441,-6.38883 1.735334,-4.75445 4.081134,-9.38776 -0.392149,-13.50612 -5.594443,-5.1506 -13.787179,4.11888 -17.851968,-1.0563 -3.940562,-5.017 6.629006,-10.57517 5.15493,-16.16686 -2.720985,-10.32166 -14.969248,-0.99616 -18.528763,-6.37567 -3.549998,-5.36515 5.5336,-10.20914 6.719334,-14.8112 1.376116,-5.34101 -5.293664,-8.14432 -8.891465,-10.24661 M 289.30704,133.31151 c -2.5134,3.60205 -7.76938,2.6418 -11.61281,2.40036 -6.68457,-0.41996 -13.75289,0.33206 -20.49323,0.33206 -3.4871,0 -7.00249,0.67323 -8.88039,-2.73242 l 14.34525,-0.71 26.64118,0.71 M 76.177588,271.98227 c 7.71854,-1.997 24.733912,-4.15568 31.911012,0.11233 6.60107,3.92542 10.64075,10.84751 17.95581,14.21293 13.59093,6.25274 33.5497,8.521 48.50062,7.47306 45.06223,-3.15847 58.7363,-63.62933 23.22565,-88.59995 -10.82972,-7.6153 -21.52439,-8.07178 -34.15537,-9.08699 -13.52897,-1.08742 -23.8705,-3.12963 -36.88779,2.8157 -7.26007,3.31587 -11.66733,10.55343 -18.44652,13.80076 -5.22414,2.50242 -12.796574,1.20809 -18.441276,1.20809 -3.065679,0 -9.446541,1.20033 -12.017097,-0.70208 -2.855427,-2.11323 1.304802,-9.20894 2.359249,-11.59385 4.868218,-11.01083 12.352445,-20.71573 20.703544,-29.31247 8.15605,-8.39597 18.18633,-14.24743 28.57454,-19.35471 11.74042,-5.77207 25.19579,-8.713 38.25399,-8.71382 18.59579,-10e-4 36.19902,3.1972 52.59927,12.52574 50.98258,28.99912 65.93051,97.83368 31.47721,145.27203 -36.24744,49.90868 -109.87106,52.96821 -152.386675,10.2466 C 89.239849,302.07249 78.337899,286.61044 76.177588,271.98231 M 305.70162,155.85409 c -4.40159,1.04794 -9.15494,0.82131 -13.66214,1.25024 -3.25444,0.3097 -6.34168,-0.14457 -9.56351,-0.45116 -2.04161,-0.19429 -4.10052,-0.0933 -6.14796,-0.11861 -1.68038,-0.0208 -8.94157,-0.90762 -5.70572,-4.19616 1.99277,-2.02523 6.56715,-1.26607 9.12125,-1.26607 6.46892,0 23.68103,-3.06849 25.95808,4.78176 m -15.02837,25.95807 c -0.2334,-1.98809 -0.97858,-4.65417 0.98197,-6.02568 2.02168,-1.41426 5.57167,-0.8054 7.89843,-0.8054 6.46371,0 17.17153,-2.07013 23.15135,0.41219 2.12404,0.88174 3.92849,4.66591 1.22283,6.0067 -2.58889,1.28293 -7.19806,0.41219 -10.02893,0.41219 -3.19322,0 -6.39029,-0.11199 -9.5635,0.28938 -4.47018,0.56538 -9.13275,-0.28938 -13.66215,-0.28938 m -170.7768,94.9519 c 5.30367,0.24295 9.34273,3.31995 14.34525,4.67319 8.44065,2.28329 19.52836,0.99462 27.32429,-2.91589 27.55788,-13.82328 27.3154,-54.58885 1.36622,-69.64742 -9.16709,-5.31973 -19.83639,-6.99131 -30.05672,-4.18453 -5.04899,1.38661 -9.07488,4.1366 -14.34526,5.13014 2.20061,-7.1998 14.59383,-10.56103 21.17633,-11.88584 23.01303,-4.63168 46.04704,9.86236 52.57236,32.37907 7.08862,24.46033 -8.40456,51.50144 -33.44536,56.69579 -11.22571,2.3286 -33.01692,2.15374 -38.93711,-10.24451 m 73.77559,-12.97903 c 0.1521,-7.1403 3.36177,-13.9332 3.36177,-21.17632 0,-11.32666 -4.77827,-22.76748 -11.87638,-31.42294 -3.03476,-3.70061 -7.11117,-6.41767 -9.9293,-10.2466 6.20868,-1.83452 12.4469,1.11072 17.76079,4.23779 13.90797,8.18451 20.82365,21.11947 22.73704,36.74864 0.64765,5.29014 0.69518,17.48881 -4.05333,21.18425 -4.26914,3.32236 -13.14578,1.28872 -18.00059,0.67518 m 108.14807,-59.70125 c 3.64139,-1.7918 10.24165,-0.23934 14.12812,0.0489 6.26437,0.4648 12.80521,-1.38101 19.11437,-0.36002 3.30774,0.53528 4.93898,4.59957 1.86903,6.7378 -2.49877,1.74042 -6.49352,1.35719 -9.37059,1.3583 -7.43032,0.002 -18.02479,1.95776 -25.11894,-0.21716 -2.68937,-0.82451 -3.18064,-6.30893 -0.62199,-7.56795 m -125.22576,54.9195 c -2.55063,-0.79586 -9.34259,-0.52967 -10.90073,-2.55638 -1.94842,-2.53431 1.20956,-9.43174 1.30771,-12.47197 0.23045,-7.13937 -2.2509,-15.25947 -6.19015,-21.17633 -2.91858,-4.38381 -7.04685,-7.85175 -11.54112,-10.51647 -2.76719,-1.6407 -6.49546,-2.40274 -8.19729,-5.195 28.48612,-5.20983 44.92614,28.83801 35.52158,51.91615 M 305.70162,236.4606 c 4.58024,-0.19669 9.05271,-0.6831 13.66214,-0.6831 2.94982,0 5.94605,-0.1512 8.8804,0.19501 2.31545,0.2732 15.4395,-0.21142 10.9102,5.44589 -1.76388,2.20319 -7.04354,1.09017 -9.54399,1.38519 -7.69592,0.90803 -23.87173,4.12068 -23.90875,-6.34299 m -260.263861,4.78175 c 7.378352,2.18093 16.908301,0.6831 24.591856,0.6831 h 50.549935 c 6.49691,0 12.69763,0.0695 19.12384,0.93295 1.36436,0.1833 4.32001,0.14531 3.58845,-2.12205 -0.65124,-2.01832 -4.04191,-1.54015 -5.6346,-1.54332 -5.3325,-0.0105 -10.39156,0.82272 -15.71148,0.19503 -6.27415,-0.74028 -12.79898,0.51807 -19.12699,0.48755 -12.710056,-0.0613 -25.492023,-0.68258 -38.254009,-0.68258 -4.924176,0 -16.268972,-2.33316 -19.127002,2.04932 m 128.424161,21.17633 v 0.6831 c -3.3495,0.99006 -9.48877,1.91018 -11.61283,-1.36622 l 11.61283,0.68312 m 147.55117,3.41554 c -1.83039,3.78681 -12.42782,5.82427 -15.94233,2.71662 -2.98552,-2.63991 3.81679,-3.39097 5.0126,-3.39921 h 4.78176 c 2.13125,0.0105 4.07622,0.18933 6.14797,0.68259 m -112.71271,2.73242 c -1.25138,4.30138 -15.18762,5.72665 -18.67475,2.724 -3.13607,-2.70036 4.58361,-3.40073 5.69572,-3.40658 l 5.46486,-5.2e-4 c 2.58867,9.9e-4 4.9904,0.0823 7.51417,0.6831 m 157.11468,2.04933 c 6.96949,-3.354 20.36216,-2.07327 28.0074,-1.1712 1.71418,0.20225 9.3975,-0.15816 8.367,3.0434 -0.8274,2.57057 -7.02322,1.54333 -9.05012,1.54333 -6.84574,0 -23.32571,3.06819 -27.32428,-3.41553 m -40.98328,-0.35684 c 8.14297,-1.74805 7.83398,14.09933 17.07453,14.905 8.70961,0.75942 11.00643,-14.89712 19.79692,-11.78305 8.8593,3.13844 -3.40728,16.99398 5.50806,19.47856 6.99397,1.94911 14.1065,-9.19218 20.38889,-4.7533 7.63456,5.39426 -7.07054,14.77252 -2.7451,22.11929 4.05445,6.88648 15.13364,-0.19558 17.62112,6.23284 2.70779,6.99774 -12.138,8.50071 -12.48781,15.63714 -0.18741,3.82375 2.3007,8.33146 5.22979,10.63613 2.34631,1.8461 7.01941,2.4194 6.41414,6.43101 -0.89529,5.93378 -13.38876,3.43285 -16.74564,9.58405 -3.41123,6.25083 4.14669,15.16774 0.32631,19.50124 -4.02353,4.56391 -12.51108,-4.09171 -18.03118,-1.00358 -7.68716,4.30047 -3.81162,13.33657 -9.17663,17.69068 -6.60284,5.35871 -9.73482,-6.64204 -15.40576,-5.47854 -6.07459,1.24626 -5.70915,11.77214 -12.27642,12.60164 -4.09885,0.51771 -4.7803,-7.20477 -5.95926,-9.84919 -4.01426,-9.0038 -9.37876,-6.62394 -15.92969,-2.37295 -1.69006,1.09671 -4.61627,2.36044 -5.99828,0.10388 -3.59082,-5.86319 6.47563,-13.1821 -1.58758,-19.11011 -5.76709,-4.23995 -16.88393,4.884 -20.3994,-1.26449 -3.54976,-6.20845 9.68178,-11.77282 6.69769,-19.6989 -2.63315,-6.99396 -14.72712,-3.43631 -16.03613,-9.64731 -1.53694,-7.29252 12.34359,-7.03046 13.8187,-14.27145 1.13336,-5.56339 -3.67532,-11.50413 -6.64767,-15.71147 -1.3941,-1.9734 -3.83843,-4.77579 -2.87735,-7.413 0.98856,-2.71255 4.80489,-2.14861 7.07194,-2.15051 4.51478,-0.003 9.82208,-0.12541 12.17102,-4.7923 2.29799,-4.56565 -4.79164,-11.84174 0.88286,-14.88551 7.95504,-4.26708 10.36568,11.40965 17.68331,7.93215 7.42625,-3.52911 3.77169,-16.98339 11.61862,-18.66789 m -172.14619,5.82169 v 1.36621 l -10.92971,0.68312 v -1.36622 l 10.92971,-0.68311 m 34.15537,9.56351 c -3.08109,5.72471 -15.03096,5.94414 -20.49323,4.09864 5.00553,-6.63378 13.27428,-4.66839 20.49323,-4.09864 m 209.07088,0.97934 c 7.30588,-2.19301 19.50154,-0.86189 27.08918,-0.14022 1.88951,0.17972 8.80384,2.21664 5.22028,5.28987 -1.68237,1.44281 -5.70418,0.70208 -7.75766,0.70208 -6.77676,0 -18.94367,2.37611 -25.11896,-0.41219 -2.78041,-1.25541 -2.10415,-4.63769 0.56716,-5.43954 m -66.30147,8.93572 c -6.47777,1.32579 -13.27502,3.98182 -18.4439,8.16567 -31.69381,25.65397 -5.80957,77.42594 33.47225,69.16145 5.55838,-1.16944 10.41969,-3.36765 15.02837,-6.66294 33.02918,-23.61659 10.42159,-78.94881 -30.05672,-70.66418 m 103.22086,3.36021 c 3.14958,-0.95533 12.84321,-1.48828 15.05368,1.28715 2.4858,3.12111 2.60376,10.25084 3.26318,14.12808 0.60856,3.57823 4.48919,13.39671 -0.66781,14.8112 -1.48937,0.40851 -3.21803,0.20915 -4.74168,0.16184 -1.13452,-0.0352 -2.2843,-0.0391 -3.415,-0.14288 -9.36287,-0.85905 3.0099,-10.97847 -1.77894,-16.66233 -2.93014,-3.47775 -9.28798,0.37393 -11.86214,-3.82296 -1.83106,-2.98535 0.99572,-8.80376 4.14871,-9.7601 m -96.38978,0.58295 c 24.93711,-2.9407 39.95735,25.81098 32.95992,46.93832 -4.38045,13.22597 -17.62642,21.09782 -30.9106,22.42604 -26.86863,2.68653 -45.17989,-27.00716 -33.21664,-50.43344 6.45725,-12.6445 17.87708,-17.36365 31.16732,-18.93092 m 75.82544,14.34471 c 7.23458,-0.90816 15.33385,-0.4728 22.52882,0.55186 2.37837,0.33871 5.08073,3.39923 1.84536,4.98839 -1.868,0.91753 -4.59059,0.33559 -6.61394,0.52812 -5.99053,0.5701 -16.05498,2.43099 -21.64175,-0.51811 -4.63111,-2.44465 1.69215,-5.27542 3.88151,-5.55026 m 40.30278,18.93147 c 0.77346,7.25375 -2.57495,14.26691 -4.35164,21.17632 -0.8001,3.11159 -1.20524,7.42721 -3.22104,10.02944 -1.86782,2.4112 -12.96398,2.87457 -14.95034,0.39323 -4.8393,-6.04518 10.53417,-11.58417 11.66289,-16.57064 1.59474,-7.04505 -8.45419,-7.39625 -9.97676,-12.93951 -0.65718,-2.39249 2.08969,-2.68896 3.75976,-2.56376 5.63846,0.42273 11.39485,0.35764 17.07713,0.47492 m 11.61283,0 v 1.36621 c 10.94751,3.70602 25.4118,1.36622 36.88779,1.36622 -0.74628,-4.47164 -5.23626,-3.41554 -8.8804,-3.41554 -8.68301,0 -19.67607,-1.77952 -28.00739,0.68311 m -54.63804,13.87033 c 6.42682,-1.07 14.7027,-0.77871 21.16578,-0.0132 4.15472,0.49212 9.46649,2.61587 2.72926,5.31464 -5.39565,2.16134 -20.26753,2.15469 -25.85371,0.34207 -4.17402,-1.35439 -0.77685,-5.1881 1.95867,-5.64354 M 453.25278,359.42 c 14.60876,0 29.15418,1.29546 43.71886,1.36568 1.58403,0.008 14.10693,0.84361 12.63961,-2.35979 -1.07203,-2.34038 -10.4178,-1.05522 -12.63961,-1.05522 -10.90787,0 -21.83821,-0.6831 -32.78914,-0.6831 -3.58661,0 -9.56405,-1.38242 -10.92972,2.73243 m -60.69799,15.32459 c 6.576,-2.10144 20.34809,-0.70984 27.22574,0.10959 2.06858,0.24649 9.88287,1.78182 5.29566,4.96411 -5.76326,3.9982 -18.52182,1.97311 -25.10577,1.52224 -2.45529,-0.16811 -5.7503,0.57354 -8.03864,-0.47332 -2.72602,-1.24705 -2.01365,-5.28009 0.62301,-6.12264 m -6.24652,20.19698 v 0.6831 l -22.54254,1.36622 c 1.64148,-4.94582 18.15113,-3.34737 22.54254,-2.04932 z"
       id="path1" /></g></svg>
